<?xml version="1.0" encoding="UTF-8"?>
<!DOCTYPE svg PUBLIC "-//W3C//DTD SVG 1.1//EN" "http://www.w3.org/Graphics/SVG/1.1/DTD/svg11.dtd">
<svg xmlns="http://www.w3.org/2000/svg" version="1.1" width="3264px" height="3264px" style="shape-rendering:geometricPrecision; text-rendering:geometricPrecision; image-rendering:optimizeQuality; fill-rule:evenodd; clip-rule:evenodd" xmlns:xlink="http://www.w3.org/1999/xlink">
<g><path style="opacity:0.005" fill="#0000ff" d="M 2102.5,222.5 C 2105.63,223.238 2106.96,224.905 2106.5,227.5C 2105.17,225.833 2103.83,224.167 2102.5,222.5 Z"/></g>
<g><path style="opacity:0.982" fill="#0161ec" d="M 2102.5,222.5 C 2103.83,224.167 2105.17,225.833 2106.5,227.5C 2097.25,247.162 2086.59,265.996 2074.5,284C 2056.35,317.915 2037.35,351.415 2017.5,384.5C 1986.51,440.481 1955.01,496.147 1923,551.5C 1922.33,552.5 1922.33,553.5 1923,554.5C 2053.29,484.605 2183.79,415.105 2314.5,346C 2323.15,339.681 2332.48,334.681 2342.5,331C 2345.83,328.667 2349.17,326.333 2352.5,324C 2354.17,323.667 2355.83,323.333 2357.5,323C 2407.03,296.15 2456.7,269.483 2506.5,243C 2508.44,242.257 2510.27,242.424 2512,243.5C 2512.67,245.833 2512.67,248.167 2512,250.5C 2508.32,255.007 2504.49,259.341 2500.5,263.5C 2489.11,278.715 2477.94,294.048 2467,309.5C 2443.74,337.316 2421.4,365.982 2400,395.5C 2373.09,429.642 2346.43,463.976 2320,498.5C 2296.33,528.875 2272.49,559.375 2248.5,590C 2248.83,590.167 2249.17,590.333 2249.5,590.5C 2449.78,517.299 2649.45,443.466 2848.5,369C 2852.11,367.677 2855.78,367.011 2859.5,367C 2860.59,369.064 2860.76,371.231 2860,373.5C 2839.35,395.987 2817.51,417.32 2794.5,437.5C 2787.05,445.123 2779.71,452.957 2772.5,461C 2760.8,472.369 2748.8,483.369 2736.5,494C 2722.8,508.698 2708.8,523.032 2694.5,537C 2690.96,539.418 2687.63,542.085 2684.5,545C 2650.95,578.577 2617.28,611.911 2583.5,645C 2573.63,654.373 2563.63,663.54 2553.5,672.5C 2551.23,671.263 2548.89,669.929 2546.5,668.5C 2155.85,669.203 1765.02,669.203 1374,668.5C 1372.69,670.891 1371.69,670.891 1371,668.5C 1367.98,669.331 1366.48,667.998 1366.5,664.5C 1367.92,664.291 1369.26,663.791 1370.5,663C 1463.87,581.296 1557.54,499.963 1651.5,419C 1657.3,417.121 1659.8,419.287 1659,425.5C 1656.04,430.031 1653.37,434.697 1651,439.5C 1630.2,488.899 1608.03,537.733 1584.5,586C 1587.65,587.035 1590.32,586.368 1592.5,584C 1597.83,583.543 1602.99,582.376 1608,580.5C 1713.93,503.125 1820.09,426.125 1926.5,349.5C 1980.46,309.518 2034.79,270.018 2089.5,231C 2090.17,230 2090.83,229 2091.5,228C 2095.33,226.298 2099,224.465 2102.5,222.5 Z"/></g>
<g><path style="opacity:0.997" fill="#0062ee" d="M 1366.5,664.5 C 1366.48,667.998 1367.98,669.331 1371,668.5C 1371.69,670.891 1372.69,670.891 1374,668.5C 1765.02,669.203 2155.85,669.203 2546.5,668.5C 2548.89,669.929 2551.23,671.263 2553.5,672.5C 2520.79,705.048 2487.95,737.381 2455,769.5C 2437.44,792.492 2423.44,817.492 2413,844.5C 2411.91,846.349 2410.57,848.016 2409,849.5C 2404.29,864.725 2398.96,879.725 2393,894.5C 2391.7,899.431 2390.7,904.431 2390,909.5C 2389,910.5 2388,911.5 2387,912.5C 2386.73,918.296 2385.73,923.963 2384,929.5C 2383.74,931.618 2382.74,933.284 2381,934.5C 2379.45,942.016 2378.28,949.682 2377.5,957.5C 2376.16,959.996 2374.16,961.829 2371.5,963C 2174.17,963.333 1976.83,963.667 1779.5,964C 1736.75,965.901 1700.09,981.568 1669.5,1011C 1641.36,1038.98 1625.19,1072.81 1621,1112.5C 1620.5,1168.5 1620.33,1224.5 1620.5,1280.5C 1619.73,1281.26 1619.23,1282.26 1619,1283.5C 1618.67,1243.17 1618.33,1202.83 1618,1162.5C 1616.49,1160.7 1616.33,1158.87 1617.5,1157C 1616.17,1155 1614.83,1155 1613.5,1157C 1614.13,1158.89 1615.13,1160.56 1616.5,1162C 1615.24,1164.21 1614.57,1166.71 1614.5,1169.5C 1614.67,1171.83 1614.83,1174.17 1615,1176.5C 1615.5,1177 1616,1177.5 1616.5,1178C 1614.24,1180.72 1613.91,1183.72 1615.5,1187C 1614.85,1188.61 1614.02,1190.11 1613,1191.5C 1612.33,1190.83 1611.67,1190.17 1611,1189.5C 1363.8,1190.24 1116.13,1190.57 868,1190.5C 866.981,1189.31 865.814,1188.31 864.5,1187.5C 863.591,1189.4 862.591,1191.24 861.5,1193C 862.801,1194.94 862.135,1196.11 859.5,1196.5C 858.893,1196.38 858.56,1196.04 858.5,1195.5C 942.32,1005.79 1070.32,852.287 1242.5,735C 1282.35,708.584 1323.68,685.084 1366.5,664.5 Z"/></g>
<g><path style="opacity:0.004" fill="#0000ff" d="M 2379.5,956.5 C 2380.83,957.167 2380.83,957.167 2379.5,956.5 Z"/></g>
<g><path style="opacity:0.004" fill="#220eb8" d="M 2382.5,957.5 C 2383.25,956.427 2384.25,956.26 2385.5,957C 2384.55,957.483 2383.55,957.649 2382.5,957.5 Z"/></g>
<g><path style="opacity:0.004" fill="#220eb8" d="M 2386.5,957.5 C 2387.25,956.427 2388.25,956.26 2389.5,957C 2388.55,957.483 2387.55,957.649 2386.5,957.5 Z"/></g>
<g><path style="opacity:0.004" fill="#1f0f4f" d="M 2391.5,957.5 C 2391.9,956.475 2392.56,956.308 2393.5,957C 2392.91,957.464 2392.24,957.631 2391.5,957.5 Z"/></g>
<g><path style="opacity:0.004" fill="#000000" d="M 2394.5,956.5 C 2395.83,957.167 2395.83,957.167 2394.5,956.5 Z"/></g>
<g><path style="opacity:0.004" fill="#1f0f4f" d="M 2397.5,957.5 C 2397.9,956.475 2398.56,956.308 2399.5,957C 2398.91,957.464 2398.24,957.631 2397.5,957.5 Z"/></g>
<g><path style="opacity:0.004" fill="#0000ff" d="M 2402.5,957.5 C 2402.9,956.475 2403.56,956.308 2404.5,957C 2403.91,957.464 2403.24,957.631 2402.5,957.5 Z"/></g>
<g><path style="opacity:0.004" fill="#000000" d="M 2406.5,956.5 C 2407.83,957.167 2407.83,957.167 2406.5,956.5 Z"/></g>
<g><path style="opacity:0.004" fill="#0000ff" d="M 2409.5,956.5 C 2410.83,957.167 2410.83,957.167 2409.5,956.5 Z"/></g>
<g><path style="opacity:0.004" fill="#200cc6" d="M 2412.5,957.5 C 2413.6,956.402 2414.93,956.235 2416.5,957C 2415.21,957.49 2413.87,957.657 2412.5,957.5 Z"/></g>
<g><path style="opacity:0.004" fill="#1f0f4f" d="M 2417.5,957.5 C 2417.9,956.475 2418.56,956.308 2419.5,957C 2418.91,957.464 2418.24,957.631 2417.5,957.5 Z"/></g>
<g><path style="opacity:0.004" fill="#1f0f4f" d="M 2421.5,957.5 C 2421.9,956.475 2422.56,956.308 2423.5,957C 2422.91,957.464 2422.24,957.631 2421.5,957.5 Z"/></g>
<g><path style="opacity:0.004" fill="#000000" d="M 2424.5,956.5 C 2425.83,957.167 2425.83,957.167 2424.5,956.5 Z"/></g>
<g><path style="opacity:0.004" fill="#241177" d="M 2427.5,957.5 C 2428.25,956.427 2429.25,956.26 2430.5,957C 2429.55,957.483 2428.55,957.649 2427.5,957.5 Z"/></g>
<g><path style="opacity:0.004" fill="#240fa2" d="M 2432.5,957.5 C 2432.9,956.475 2433.56,956.308 2434.5,957C 2433.91,957.464 2433.24,957.631 2432.5,957.5 Z"/></g>
<g><path style="opacity:0.004" fill="#000000" d="M 2436.5,956.5 C 2437.83,957.167 2437.83,957.167 2436.5,956.5 Z"/></g>
<g><path style="opacity:0.004" fill="#0000ff" d="M 2439.5,956.5 C 2440.83,957.167 2440.83,957.167 2439.5,956.5 Z"/></g>
<g><path style="opacity:0.004" fill="#241177" d="M 2443.5,957.5 C 2444.25,956.427 2445.25,956.26 2446.5,957C 2445.55,957.483 2444.55,957.649 2443.5,957.5 Z"/></g>
<g><path style="opacity:0.004" fill="#1f0f4f" d="M 2447.5,957.5 C 2447.9,956.475 2448.56,956.308 2449.5,957C 2448.91,957.464 2448.24,957.631 2447.5,957.5 Z"/></g>
<g><path style="opacity:0.004" fill="#1f0f4f" d="M 2451.5,957.5 C 2451.9,956.475 2452.56,956.308 2453.5,957C 2452.91,957.464 2452.24,957.631 2451.5,957.5 Z"/></g>
<g><path style="opacity:0.004" fill="#0000ff" d="M 2455.5,956.5 C 2456.83,957.167 2456.83,957.167 2455.5,956.5 Z"/></g>
<g><path style="opacity:0.004" fill="#0000ff" d="M 2458.5,957.5 C 2458.9,956.475 2459.56,956.308 2460.5,957C 2459.91,957.464 2459.24,957.631 2458.5,957.5 Z"/></g>
<g><path style="opacity:0.004" fill="#0000ff" d="M 2462.5,957.5 C 2462.9,956.475 2463.56,956.308 2464.5,957C 2463.91,957.464 2463.24,957.631 2462.5,957.5 Z"/></g>
<g><path style="opacity:0.004" fill="#000000" d="M 2466.5,956.5 C 2467.83,957.167 2467.83,957.167 2466.5,956.5 Z"/></g>
<g><path style="opacity:0.004" fill="#000000" d="M 2470.5,956.5 C 2471.83,957.167 2471.83,957.167 2470.5,956.5 Z"/></g>
<g><path style="opacity:0.004" fill="#0000ff" d="M 2473.5,957.5 C 2474.25,956.427 2475.25,956.26 2476.5,957C 2475.55,957.483 2474.55,957.649 2473.5,957.5 Z"/></g>
<g><path style="opacity:0.004" fill="#0000ff" d="M 2477.5,956.5 C 2478.83,957.167 2478.83,957.167 2477.5,956.5 Z"/></g>
<g><path style="opacity:0.004" fill="#000000" d="M 2482.5,956.5 C 2483.83,957.167 2483.83,957.167 2482.5,956.5 Z"/></g>
<g><path style="opacity:0.004" fill="#0000ff" d="M 2485.5,956.5 C 2486.83,957.167 2486.83,957.167 2485.5,956.5 Z"/></g>
<g><path style="opacity:0.004" fill="#240fa2" d="M 2488.5,957.5 C 2488.9,956.475 2489.56,956.308 2490.5,957C 2489.91,957.464 2489.24,957.631 2488.5,957.5 Z"/></g>
<g><path style="opacity:0.004" fill="#241177" d="M 2492.5,957.5 C 2493.25,956.427 2494.25,956.26 2495.5,957C 2494.55,957.483 2493.55,957.649 2492.5,957.5 Z"/></g>
<g><path style="opacity:0.004" fill="#0000ff" d="M 2497.5,956.5 C 2498.83,957.167 2498.83,957.167 2497.5,956.5 Z"/></g>
<g><path style="opacity:0.004" fill="#000000" d="M 2500.5,956.5 C 2501.83,957.167 2501.83,957.167 2500.5,956.5 Z"/></g>
<g><path style="opacity:0.004" fill="#241177" d="M 2503.5,957.5 C 2504.25,956.427 2505.25,956.26 2506.5,957C 2505.55,957.483 2504.55,957.649 2503.5,957.5 Z"/></g>
<g><path style="opacity:0.004" fill="#240fa2" d="M 2508.5,957.5 C 2508.9,956.475 2509.56,956.308 2510.5,957C 2509.91,957.464 2509.24,957.631 2508.5,957.5 Z"/></g>
<g><path style="opacity:0.004" fill="#302ee5" d="M 2516.5,958.5 C 2514.58,959.96 2512.91,959.626 2511.5,957.5C 2513.08,956.928 2514.58,956.594 2516,956.5C 2516.46,957.094 2516.63,957.761 2516.5,958.5 Z"/></g>
<g><path style="opacity:0.004" fill="#4a67dc" d="M 2516.5,958.5 C 2520.01,959.116 2520.84,960.783 2519,963.5C 2517.12,962.347 2516.28,960.681 2516.5,958.5 Z"/></g>
<g><path style="opacity:0.004" fill="#2520d5" d="M 2519.5,964.5 C 2520.82,965.757 2522.15,967.091 2523.5,968.5C 2518.85,971.188 2517.52,969.855 2519.5,964.5 Z"/></g>
<g><path style="opacity:0.004" fill="#000000" d="M 2522.5,972.5 C 2523.83,973.167 2523.83,973.167 2522.5,972.5 Z"/></g>
<g><path style="opacity:0.004" fill="#0000ff" d="M 2524.5,973.5 C 2525.83,974.167 2525.83,974.167 2524.5,973.5 Z"/></g>
<g><path style="opacity:0.004" fill="#210dc0" d="M 2524.5,977.5 C 2528.42,978.425 2528.42,979.425 2524.5,980.5C 2523.44,979.575 2523.44,978.575 2524.5,977.5 Z"/></g>
<g><path style="opacity:0.004" fill="#0000ff" d="M 2526.5,985.5 C 2525.83,984.167 2525.83,984.167 2526.5,985.5 Z"/></g>
<g><path style="opacity:0.004" fill="#0000ff" d="M 2526.5,986.5 C 2526.5,986.167 2526.5,985.833 2526.5,985.5C 2528.18,985.285 2529.18,985.952 2529.5,987.5C 2528.61,986.89 2527.61,986.557 2526.5,986.5 Z"/></g>
<g><path style="opacity:0.993" fill="#0062f0" d="M 2526.5,986.5 C 2527.61,986.557 2528.61,986.89 2529.5,987.5C 2535.17,1003.4 2540.01,1019.74 2544,1036.5C 2546.99,1043.83 2548.99,1051.49 2550,1059.5C 2550.67,1060.17 2551.33,1060.83 2552,1061.5C 2552.52,1068.3 2553.52,1074.97 2555,1081.5C 2556.89,1083.03 2557.89,1085.03 2558,1087.5C 2559.6,1094.72 2560.6,1102.05 2561,1109.5C 2561.67,1110.17 2562.33,1110.83 2563,1111.5C 2563.06,1116.02 2563.73,1120.35 2565,1124.5C 2565.33,1129.83 2565.67,1135.17 2566,1140.5C 2567.87,1142 2568.87,1144 2569,1146.5C 2570.33,1159.24 2571.83,1171.91 2573.5,1184.5C 2574.13,1189.14 2574.46,1193.81 2574.5,1198.5C 2573.76,1198.63 2573.09,1198.46 2572.5,1198C 2572.67,1195.5 2572.83,1193 2573,1190.5C 2572,1191.17 2571,1191.83 2570,1192.5C 2569.33,1191.17 2568.33,1190.17 2567,1189.5C 2259.55,1190.27 1952.22,1190.6 1645,1190.5C 1644.33,1189.5 1644.33,1188.5 1645,1187.5C 1645.33,1187.83 1645.67,1188.17 1646,1188.5C 1648.36,1185.88 1648.03,1185.21 1645,1186.5C 1644.67,1184.17 1644.33,1181.83 1644,1179.5C 1643.62,1180.06 1643.12,1180.39 1642.5,1180.5C 1641.88,1154.44 1642.72,1128.44 1645,1102.5C 1660.57,1040.27 1699.73,1002.43 1762.5,989C 1770.08,988.816 1777.58,988.316 1785,987.5C 2028.4,988.401 2272.9,988.734 2518.5,988.5C 2521.31,987.92 2523.98,987.254 2526.5,986.5 Z"/></g>
<g><path style="opacity:0.004" fill="#0000ff" d="M 2573.5,1184.5 C 2574.12,1184.61 2574.62,1184.94 2575,1185.5C 2575.5,1192.16 2575.67,1198.83 2575.5,1205.5C 2574.53,1203.39 2574.2,1201.06 2574.5,1198.5C 2574.46,1193.81 2574.13,1189.14 2573.5,1184.5 Z"/></g>
<g><path style="opacity:0.998" fill="#0063f2" d="M 1620.5,1280.5 C 1620.5,1298.83 1620.5,1317.17 1620.5,1335.5C 1619.17,1368.49 1618.5,1401.83 1618.5,1435.5C 1618.67,1468.83 1618.83,1502.17 1619,1535.5C 1619.23,1534.26 1619.73,1533.26 1620.5,1532.5C 1619.02,1566.79 1626.69,1598.79 1643.5,1628.5C 1643.61,1630.38 1643.11,1630.71 1642,1629.5C 1640.91,1630.29 1639.75,1630.96 1638.5,1631.5C 1353.12,1630.75 1067.96,1630.75 783,1631.5C 782.333,1630.83 781.667,1630.17 781,1629.5C 779.829,1630.89 778.329,1631.73 776.5,1632C 778.657,1633.08 778.824,1634.25 777,1635.5C 775.5,1633.83 774,1632.17 772.5,1630.5C 773.529,1630.7 774.529,1630.2 775.5,1629C 774.354,1628.36 773.354,1627.52 772.5,1626.5C 771.818,1627.24 771.151,1627.91 770.5,1628.5C 770.128,1601.48 770.628,1574.48 772,1547.5C 772.419,1546.33 773.085,1545.33 774,1544.5C 774.333,1534.5 774.667,1524.5 775,1514.5C 786.434,1403.73 814.268,1297.39 858.5,1195.5C 858.56,1196.04 858.893,1196.38 859.5,1196.5C 862.135,1196.11 862.801,1194.94 861.5,1193C 862.591,1191.24 863.591,1189.4 864.5,1187.5C 865.814,1188.31 866.981,1189.31 868,1190.5C 1116.13,1190.57 1363.8,1190.24 1611,1189.5C 1611.67,1190.17 1612.33,1190.83 1613,1191.5C 1614.02,1190.11 1614.85,1188.61 1615.5,1187C 1613.91,1183.72 1614.24,1180.72 1616.5,1178C 1616,1177.5 1615.5,1177 1615,1176.5C 1614.83,1174.17 1614.67,1171.83 1614.5,1169.5C 1614.57,1166.71 1615.24,1164.21 1616.5,1162C 1615.13,1160.56 1614.13,1158.89 1613.5,1157C 1614.83,1155 1616.17,1155 1617.5,1157C 1616.33,1158.87 1616.49,1160.7 1618,1162.5C 1618.33,1202.83 1618.67,1243.17 1619,1283.5C 1619.23,1282.26 1619.73,1281.26 1620.5,1280.5 Z"/></g>
<g><path style="opacity:0.998" fill="#0064f2" d="M 2574.5,1198.5 C 2574.2,1201.06 2574.53,1203.39 2575.5,1205.5C 2575.99,1206.47 2576.49,1207.47 2577,1208.5C 2579.62,1259.85 2579.79,1311.18 2577.5,1362.5C 2575.92,1370.64 2575.59,1378.64 2576.5,1386.5C 2576.17,1387.83 2575.83,1389.17 2575.5,1390.5C 2574.76,1396.7 2574.09,1403.03 2573.5,1409.5C 2571.76,1421.42 2570.26,1433.42 2569,1445.5C 2568.25,1447.33 2567.25,1449 2566,1450.5C 2565.3,1459.55 2564.3,1468.55 2563,1477.5C 2562.33,1478.17 2561.67,1478.83 2561,1479.5C 2546.19,1552.25 2519.03,1620.08 2479.5,1683C 2475.85,1683.5 2472.18,1683.67 2468.5,1683.5C 2354.84,1682.17 2240.84,1681.5 2126.5,1681.5C 2012.26,1681.5 1898.1,1681.83 1784,1682.5C 1782.56,1681.74 1781.06,1681.07 1779.5,1680.5C 1778.44,1681.42 1778.44,1682.42 1779.5,1683.5C 1719.84,1678.67 1677.67,1649 1653,1594.5C 1646.68,1578.72 1643.18,1562.39 1642.5,1545.5C 1647.76,1543.2 1648.76,1539.7 1645.5,1535C 1645.83,1528.67 1646.17,1522.33 1646.5,1516C 1645.71,1514.91 1645.04,1513.75 1644.5,1512.5C 1645.5,1512.5 1646.5,1512.5 1647.5,1512.5C 1646.96,1511.25 1646.29,1510.09 1645.5,1509C 1645.42,1495.79 1645.76,1482.46 1646.5,1469C 1643.84,1467.32 1643.84,1465.66 1646.5,1464C 1645.58,1459.13 1645.58,1454.13 1646.5,1449C 1646.11,1447.99 1645.44,1447.49 1644.5,1447.5C 1645.5,1446.67 1646.5,1445.83 1647.5,1445C 1646.83,1442.33 1646.17,1439.67 1645.5,1437C 1645.43,1433.11 1645.77,1429.11 1646.5,1425C 1646.11,1423.99 1645.44,1423.49 1644.5,1423.5C 1645.72,1420.87 1646.39,1418.04 1646.5,1415C 1645.91,1410.56 1645.91,1406.56 1646.5,1403C 1646.11,1401.99 1645.44,1401.49 1644.5,1401.5C 1645.64,1399.88 1646.31,1398.05 1646.5,1396C 1645.22,1390.02 1645.22,1384.36 1646.5,1379C 1645.83,1378.33 1645.17,1377.67 1644.5,1377C 1644.76,1375.74 1645.43,1374.74 1646.5,1374C 1646.09,1368.46 1646.09,1362.79 1646.5,1357C 1643.84,1355.32 1643.84,1353.66 1646.5,1352C 1646.2,1350.68 1646.03,1349.18 1646,1347.5C 1645.35,1348.7 1644.85,1348.7 1644.5,1347.5C 1645.03,1346.81 1645.69,1346.31 1646.5,1346C 1646.09,1341.79 1646.09,1337.46 1646.5,1333C 1643.84,1331.32 1643.84,1329.66 1646.5,1328C 1646.09,1325.13 1646.09,1322.13 1646.5,1319C 1646.11,1317.99 1645.44,1317.49 1644.5,1317.5C 1645.03,1316.81 1645.69,1316.31 1646.5,1316C 1646.09,1314.46 1646.09,1312.8 1646.5,1311C 1646.39,1309.28 1645.89,1309.11 1645,1310.5C 1644.67,1308.17 1644.33,1305.83 1644,1303.5C 1643.62,1304.06 1643.12,1304.39 1642.5,1304.5C 1642.5,1263.17 1642.5,1221.83 1642.5,1180.5C 1643.12,1180.39 1643.62,1180.06 1644,1179.5C 1644.33,1181.83 1644.67,1184.17 1645,1186.5C 1648.03,1185.21 1648.36,1185.88 1646,1188.5C 1645.67,1188.17 1645.33,1187.83 1645,1187.5C 1644.33,1188.5 1644.33,1189.5 1645,1190.5C 1952.22,1190.6 2259.55,1190.27 2567,1189.5C 2568.33,1190.17 2569.33,1191.17 2570,1192.5C 2571,1191.83 2572,1191.17 2573,1190.5C 2572.83,1193 2572.67,1195.5 2572.5,1198C 2573.09,1198.46 2573.76,1198.63 2574.5,1198.5 Z"/></g>
<g><path style="opacity:0.004" fill="#0005ff" d="M 2577.5,1362.5 C 2577.83,1370.68 2577.49,1378.68 2576.5,1386.5C 2575.59,1378.64 2575.92,1370.64 2577.5,1362.5 Z"/></g>
<g><path style="opacity:0.208" fill="#0c5cf7" d="M 1642.5,1545.5 C 1642.5,1465.17 1642.5,1384.83 1642.5,1304.5C 1643.12,1304.39 1643.62,1304.06 1644,1303.5C 1644.33,1305.83 1644.67,1308.17 1645,1310.5C 1645.89,1309.11 1646.39,1309.28 1646.5,1311C 1646.09,1312.8 1646.09,1314.46 1646.5,1316C 1645.69,1316.31 1645.03,1316.81 1644.5,1317.5C 1645.44,1317.49 1646.11,1317.99 1646.5,1319C 1646.09,1322.13 1646.09,1325.13 1646.5,1328C 1643.84,1329.66 1643.84,1331.32 1646.5,1333C 1646.09,1337.46 1646.09,1341.79 1646.5,1346C 1645.69,1346.31 1645.03,1346.81 1644.5,1347.5C 1644.85,1348.7 1645.35,1348.7 1646,1347.5C 1646.03,1349.18 1646.2,1350.68 1646.5,1352C 1643.84,1353.66 1643.84,1355.32 1646.5,1357C 1646.09,1362.79 1646.09,1368.46 1646.5,1374C 1645.43,1374.74 1644.76,1375.74 1644.5,1377C 1645.17,1377.67 1645.83,1378.33 1646.5,1379C 1645.22,1384.36 1645.22,1390.02 1646.5,1396C 1646.31,1398.05 1645.64,1399.88 1644.5,1401.5C 1645.44,1401.49 1646.11,1401.99 1646.5,1403C 1645.91,1406.56 1645.91,1410.56 1646.5,1415C 1646.39,1418.04 1645.72,1420.87 1644.5,1423.5C 1645.44,1423.49 1646.11,1423.99 1646.5,1425C 1645.77,1429.11 1645.43,1433.11 1645.5,1437C 1646.17,1439.67 1646.83,1442.33 1647.5,1445C 1646.5,1445.83 1645.5,1446.67 1644.5,1447.5C 1645.44,1447.49 1646.11,1447.99 1646.5,1449C 1645.58,1454.13 1645.58,1459.13 1646.5,1464C 1643.84,1465.66 1643.84,1467.32 1646.5,1469C 1645.76,1482.46 1645.42,1495.79 1645.5,1509C 1646.29,1510.09 1646.96,1511.25 1647.5,1512.5C 1646.5,1512.5 1645.5,1512.5 1644.5,1512.5C 1645.04,1513.75 1645.71,1514.91 1646.5,1516C 1646.17,1522.33 1645.83,1528.67 1645.5,1535C 1648.76,1539.7 1647.76,1543.2 1642.5,1545.5 Z"/></g>
<g><path style="opacity:0.004" fill="#0000ff" d="M 2575.5,1390.5 C 2576.12,1397.25 2575.46,1403.59 2573.5,1409.5C 2574.09,1403.03 2574.76,1396.7 2575.5,1390.5 Z"/></g>
<g><path style="opacity:0.016" fill="#2658d4" d="M 1620.5,1335.5 C 1620.5,1401.17 1620.5,1466.83 1620.5,1532.5C 1619.73,1533.26 1619.23,1534.26 1619,1535.5C 1618.83,1502.17 1618.67,1468.83 1618.5,1435.5C 1618.5,1401.83 1619.17,1368.49 1620.5,1335.5 Z"/></g>
<g><path style="opacity:0.997" fill="#0065f6" d="M 1643.5,1628.5 C 1657.57,1649.74 1675.24,1667.57 1696.5,1682C 1717.17,1694.56 1739.5,1702.56 1763.5,1706C 1967.16,1707.31 2170.82,1707.98 2374.5,1708C 2376.59,1708.79 2378.42,1709.96 2380,1711.5C 2383.85,1717.41 2387.52,1723.41 2391,1729.5C 2391.51,1731.88 2392.18,1734.21 2393,1736.5C 2399.61,1747.32 2405.28,1758.66 2410,1770.5C 2415.91,1778.77 2420.58,1787.77 2424,1797.5C 2429.99,1805.77 2434.65,1814.77 2438,1824.5C 2441.76,1829.93 2445.1,1835.59 2448,1841.5C 2453.58,1853.11 2458.41,1864.78 2462.5,1876.5C 2462.93,1877.71 2463.6,1878.71 2464.5,1879.5C 2468.03,1903.42 2461.7,1924.59 2445.5,1943C 2439.04,1948.8 2432.04,1953.8 2424.5,1958C 2389.9,1974.98 2355.4,1992.14 2321,2009.5C 2320.75,2012.79 2319.75,2015.79 2318,2018.5C 2315.88,2043.47 2312.88,2068.14 2309,2092.5C 2308.38,2094.12 2307.38,2095.45 2306,2096.5C 2305.3,2105.55 2304.3,2114.55 2303,2123.5C 2302.25,2125.33 2301.25,2127 2300,2128.5C 2299,2136.83 2298,2145.17 2297,2153.5C 2296.33,2154.17 2295.67,2154.83 2295,2155.5C 2294.77,2163.03 2293.77,2170.36 2292,2177.5C 2291.38,2179.12 2290.38,2180.45 2289,2181.5C 2288,2188.5 2287,2195.5 2286,2202.5C 2285.74,2204.62 2284.74,2206.28 2283,2207.5C 2282.18,2218.12 2279.51,2228.12 2275,2237.5C 2273.43,2246.28 2271.43,2254.95 2269,2263.5C 2268.33,2264.17 2267.67,2264.83 2267,2265.5C 2263.46,2278.17 2259.8,2290.84 2256,2303.5C 2253.28,2308.26 2251.11,2313.26 2249.5,2318.5C 2248.09,2318.97 2247.43,2319.97 2247.5,2321.5C 2246.69,2325.76 2245.36,2329.76 2243.5,2333.5C 2242.09,2333.97 2241.43,2334.97 2241.5,2336.5C 2241.66,2337.87 2241.49,2339.21 2241,2340.5C 2235.77,2350 2231.44,2360 2228,2370.5C 2218.29,2389.59 2208.29,2408.59 2198,2427.5C 2187.79,2444.89 2176.79,2461.89 2165,2478.5C 2157,2488.66 2148.83,2498.66 2140.5,2508.5C 2139.17,2509.17 2138.17,2510.17 2137.5,2511.5C 2111.22,2543.46 2081.22,2571.12 2047.5,2594.5C 2045.97,2594.43 2044.97,2595.09 2044.5,2596.5C 2044.03,2597.91 2043.03,2598.57 2041.5,2598.5C 2037.89,2598.62 2035.73,2596.95 2035,2593.5C 1570.24,2594.64 1105.4,2594.64 640.5,2593.5C 639.808,2594.03 639.308,2594.69 639,2595.5C 638.667,2595.17 638.333,2594.83 638,2594.5C 636.887,2595.76 636.72,2596.93 637.5,2598C 636,2598.83 634.833,2600 634,2601.5C 633.536,2600.91 633.369,2600.24 633.5,2599.5C 643.141,2577.41 653.641,2555.74 665,2534.5C 724.557,2410.39 784.891,2286.72 846,2163.5C 845.775,2160.18 847.108,2157.84 850,2156.5C 859.468,2134.73 869.635,2113.23 880.5,2092C 808.326,1946.25 771.66,1791.75 770.5,1628.5C 771.151,1627.91 771.818,1627.24 772.5,1626.5C 773.354,1627.52 774.354,1628.36 775.5,1629C 774.529,1630.2 773.529,1630.7 772.5,1630.5C 774,1632.17 775.5,1633.83 777,1635.5C 778.824,1634.25 778.657,1633.08 776.5,1632C 778.329,1631.73 779.829,1630.89 781,1629.5C 781.667,1630.17 782.333,1630.83 783,1631.5C 1067.96,1630.75 1353.12,1630.75 1638.5,1631.5C 1639.75,1630.96 1640.91,1630.29 1642,1629.5C 1643.11,1630.71 1643.61,1630.38 1643.5,1628.5 Z"/></g>
<g><path style="opacity:0.039" fill="#3a7bf3" d="M 2468.5,1683.5 C 2238.83,1683.5 2009.17,1683.5 1779.5,1683.5C 1778.44,1682.42 1778.44,1681.42 1779.5,1680.5C 1781.06,1681.07 1782.56,1681.74 1784,1682.5C 1898.1,1681.83 2012.26,1681.5 2126.5,1681.5C 2240.84,1681.5 2354.84,1682.17 2468.5,1683.5 Z"/></g>
<g><path style="opacity:0.004" fill="#220eb8" d="M 2475.5,1684.5 C 2478,1684.51 2478.17,1685.18 2476,1686.5C 2475.54,1685.91 2475.37,1685.24 2475.5,1684.5 Z"/></g>
<g><path style="opacity:0.004" fill="#4451ef" d="M 2473.5,1688.5 C 2474.24,1688.37 2474.91,1688.54 2475.5,1689C 2474.84,1690.49 2473.84,1691.65 2472.5,1692.5C 2472.17,1692.17 2471.83,1691.83 2471.5,1691.5C 2472.19,1690.48 2472.86,1689.48 2473.5,1688.5 Z"/></g>
<g><path style="opacity:0.004" fill="#0000ff" d="M 2467.5,1697.5 C 2470,1697.51 2470.17,1698.18 2468,1699.5C 2467.54,1698.91 2467.37,1698.24 2467.5,1697.5 Z"/></g>
<g><path style="opacity:0.004" fill="#241177" d="M 2464.5,1703.5 C 2463.54,1702.64 2463.54,1701.97 2464.5,1701.5C 2465.77,1702.26 2465.77,1702.92 2464.5,1703.5 Z"/></g>
<g><path style="opacity:0.008" fill="#4293ff" d="M 2464.5,1703.5 C 2464.51,1706.14 2463.18,1707.48 2460.5,1707.5C 2460.83,1705.17 2462.17,1703.83 2464.5,1703.5 Z"/></g>
<g><path style="opacity:0.004" fill="#1a08db" d="M 2460.5,1707.5 C 2460.78,1711.59 2460.11,1712.09 2458.5,1709C 2458.84,1707.97 2459.5,1707.47 2460.5,1707.5 Z"/></g>
<g><path style="opacity:0.004" fill="#000000" d="M 2451.5,1713.5 C 2452.83,1714.17 2452.83,1714.17 2451.5,1713.5 Z"/></g>
<g><path style="opacity:0.004" fill="#0000ff" d="M 2462.5,1876.5 C 2464.05,1876.82 2464.71,1877.82 2464.5,1879.5C 2463.6,1878.71 2462.93,1877.71 2462.5,1876.5 Z"/></g>
<g><path style="opacity:0.004" fill="#0000ff" d="M 2249.5,2318.5 C 2249.57,2320.03 2248.91,2321.03 2247.5,2321.5C 2247.43,2319.97 2248.09,2318.97 2249.5,2318.5 Z"/></g>
<g><path style="opacity:0.004" fill="#215e5e" d="M 2243.5,2333.5 C 2243.57,2335.03 2242.91,2336.03 2241.5,2336.5C 2241.43,2334.97 2242.09,2333.97 2243.5,2333.5 Z"/></g>
<g><path style="opacity:0.004" fill="#215d5d" d="M 2140.5,2508.5 C 2140.5,2510.5 2139.5,2511.5 2137.5,2511.5C 2138.17,2510.17 2139.17,2509.17 2140.5,2508.5 Z"/></g>
<g><path style="opacity:0.99" fill="#0066f9" d="M 2041.5,2598.5 C 2033.9,2603.64 2026.23,2608.81 2018.5,2614C 2012.92,2617.09 2007.26,2619.93 2001.5,2622.5C 2000.76,2622.37 2000.09,2622.54 1999.5,2623C 1998.26,2623.69 1998.26,2624.19 1999.5,2624.5C 1974.8,2638.27 1949.13,2650.1 1922.5,2660C 1908.14,2664.34 1893.8,2668.67 1879.5,2673C 1859.95,2674.07 1840.29,2675.4 1820.5,2677C 1807.97,2679.09 1795.47,2681.26 1783,2683.5C 1775.77,2683.18 1768.6,2682.34 1761.5,2681C 1751.84,2680.12 1742.17,2679.79 1732.5,2680C 1730.33,2683.15 1728.17,2686.31 1726,2689.5C 1706.29,2730.67 1686.45,2771.67 1666.5,2812.5C 1663.45,2813.78 1662.11,2816.11 1662.5,2819.5C 1649.78,2846.27 1637.11,2872.94 1624.5,2899.5C 1622.5,2899.5 1621.5,2900.5 1621.5,2902.5C 1621.04,2905.22 1620.37,2907.89 1619.5,2910.5C 1617.55,2911.03 1616.55,2912.37 1616.5,2914.5C 1615.94,2915.79 1614.94,2916.62 1613.5,2917C 1611.5,2917.33 1609.5,2917.67 1607.5,2918C 1234.83,2918.67 862.167,2918.67 489.5,2918C 486.22,2917.94 483.22,2917.11 480.5,2915.5C 428.837,2914.67 377.17,2914.17 325.5,2914C 377.071,2913.83 428.571,2913.33 480,2912.5C 516.14,2837.72 552.64,2763.22 589.5,2689C 590.333,2686.5 591.167,2684 592,2681.5C 598.7,2668.76 605.367,2656.1 612,2643.5C 613.286,2640.59 614.286,2637.59 615,2634.5C 621.503,2622.88 627.669,2611.21 633.5,2599.5C 633.369,2600.24 633.536,2600.91 634,2601.5C 634.833,2600 636,2598.83 637.5,2598C 636.72,2596.93 636.887,2595.76 638,2594.5C 638.333,2594.83 638.667,2595.17 639,2595.5C 639.308,2594.69 639.808,2594.03 640.5,2593.5C 1105.4,2594.64 1570.24,2594.64 2035,2593.5C 2035.73,2596.95 2037.89,2598.62 2041.5,2598.5 Z"/></g>
<g><path style="opacity:0.004" fill="#1f4e4e" d="M 2047.5,2594.5 C 2047.03,2595.91 2046.03,2596.57 2044.5,2596.5C 2044.97,2595.09 2045.97,2594.43 2047.5,2594.5 Z"/></g>
<g><path style="opacity:0.004" fill="#1f4e4e" d="M 2001.5,2622.5 C 2001.17,2623.5 2000.5,2624.17 1999.5,2624.5C 1998.26,2624.19 1998.26,2623.69 1999.5,2623C 2000.09,2622.54 2000.76,2622.37 2001.5,2622.5 Z"/></g>
<g><path style="opacity:0.012" fill="#2e7faf" d="M 1666.5,2812.5 C 1664.91,2814.68 1663.58,2817.01 1662.5,2819.5C 1662.11,2816.11 1663.45,2813.78 1666.5,2812.5 Z"/></g>
<g><path style="opacity:0.004" fill="#1c4040" d="M 1624.5,2899.5 C 1623.83,2900.83 1622.83,2901.83 1621.5,2902.5C 1621.5,2900.5 1622.5,2899.5 1624.5,2899.5 Z"/></g>
<g><path style="opacity:0.004" fill="#241179" d="M 1619.5,2910.5 C 1619.2,2911.15 1618.86,2911.82 1618.5,2912.5C 1701.83,2913.33 1785.16,2913.83 1868.5,2914C 1784.5,2914.5 1700.5,2914.67 1616.5,2914.5C 1616.55,2912.37 1617.55,2911.03 1619.5,2910.5 Z"/></g>
<g><path style="opacity:0.004" fill="#000000" d="M 59.5,2913.5 C 60.8333,2914.17 60.8333,2914.17 59.5,2913.5 Z"/></g>
<g><path style="opacity:0.004" fill="#0000ff" d="M 72.5,2913.5 C 73.8333,2914.17 73.8333,2914.17 72.5,2913.5 Z"/></g>
<g><path style="opacity:0.004" fill="#000000" d="M 139.5,2913.5 C 140.833,2914.17 140.833,2914.17 139.5,2913.5 Z"/></g>
<g><path style="opacity:0.004" fill="#0000ff" d="M 152.5,2913.5 C 153.833,2914.17 153.833,2914.17 152.5,2913.5 Z"/></g>
<g><path style="opacity:0.004" fill="#000000" d="M 165.5,2913.5 C 166.833,2914.17 166.833,2914.17 165.5,2913.5 Z"/></g>
<g><path style="opacity:0.004" fill="#0000ff" d="M 232.5,2913.5 C 233.833,2914.17 233.833,2914.17 232.5,2913.5 Z"/></g>
<g><path style="opacity:0.004" fill="#000000" d="M 245.5,2913.5 C 246.833,2914.17 246.833,2914.17 245.5,2913.5 Z"/></g>
<g><path style="opacity:0.004" fill="#0000ff" d="M 312.5,2913.5 C 313.833,2914.17 313.833,2914.17 312.5,2913.5 Z"/></g>
<g><path style="opacity:0.004" fill="#2a2182" d="M 1917.5,2912.5 C 1918.76,2912.46 1919.76,2912.96 1920.5,2914C 1909.83,2914.67 1899.17,2914.67 1888.5,2914C 1898.34,2913.83 1908.01,2913.33 1917.5,2912.5 Z"/></g>
</svg>
