<?xml version="1.0" encoding="UTF-8"?>
<!DOCTYPE svg PUBLIC "-//W3C//DTD SVG 1.1//EN" "http://www.w3.org/Graphics/SVG/1.1/DTD/svg11.dtd">
<svg xmlns="http://www.w3.org/2000/svg" version="1.1" width="3264px" height="3264px" style="shape-rendering:geometricPrecision; text-rendering:geometricPrecision; image-rendering:optimizeQuality; fill-rule:evenodd; clip-rule:evenodd" xmlns:xlink="http://www.w3.org/1999/xlink">
<g><path style="opacity:0.983" fill="#fefefe" d="M 2213.5,148.5 C 2217.54,147.66 2220.54,148.993 2222.5,152.5C 2158.15,267.211 2093.32,381.545 2028,495.5C 2027.41,496.483 2027.74,497.15 2029,497.5C 2232.98,387.814 2437.15,278.647 2641.5,170C 2648.67,167.833 2651.17,170.333 2649,177.5C 2583.21,261.718 2517.87,346.385 2453,431.5C 2451.85,432.743 2450.51,433.743 2449,434.5C 2438.79,447.96 2428.79,461.627 2419,475.5C 2403.5,495.167 2388,514.833 2372.5,534.5C 2373.17,534.833 2373.83,535.167 2374.5,535.5C 2581.1,458.814 2787.77,382.314 2994.5,306C 3000.41,303.879 3006.41,302.046 3012.5,300.5C 3015.55,300.396 3017.21,301.896 3017.5,305C 3016.8,306.893 3015.97,308.726 3015,310.5C 2872.96,448.196 2730.96,586.53 2589,725.5C 2578.34,739.481 2568.67,754.148 2560,769.5C 2535.7,817.399 2518.37,867.732 2508,920.5C 2506.82,925.678 2503.66,928.845 2498.5,930C 2289.5,930.333 2080.5,930.667 1871.5,931C 1809.09,936.279 1761.93,965.779 1730,1019.5C 1718.4,1040.64 1711.4,1063.31 1709,1087.5C 1708.33,1243.5 1708.33,1399.5 1709,1555.5C 1717.62,1622.76 1752.45,1670.93 1813.5,1700C 1832.69,1707.93 1852.69,1712.27 1873.5,1713C 2084.21,1713 2294.88,1713.67 2505.5,1715C 2507.33,1716.17 2509.17,1717.33 2511,1718.5C 2538.71,1773.26 2566.38,1827.93 2594,1882.5C 2599.87,1897.67 2601.21,1913 2598,1928.5C 2593.65,1939.89 2587.98,1950.56 2581,1960.5C 2577.29,1962.7 2574.12,1965.53 2571.5,1969C 2566.17,1972.33 2560.83,1975.67 2555.5,1979C 2519.92,1996.65 2484.25,2014.32 2448.5,2032C 2447.12,2035.86 2445.62,2039.69 2444,2043.5C 2443.63,2055.58 2442.63,2067.58 2441,2079.5C 2440.47,2083.01 2439.47,2086.34 2438,2089.5C 2436.79,2099.47 2435.79,2109.47 2435,2119.5C 2434,2121.83 2433,2124.17 2432,2126.5C 2431.3,2134.89 2430.3,2143.22 2429,2151.5C 2428.53,2153.78 2427.53,2155.78 2426,2157.5C 2425,2165.5 2424,2173.5 2423,2181.5C 2422.71,2183.04 2422.04,2184.38 2421,2185.5C 2404.17,2274.34 2375.83,2359.34 2336,2440.5C 2325.41,2460.7 2314.07,2480.37 2302,2499.5C 2223.81,2618.05 2116.31,2695.88 1979.5,2733C 1959.82,2734.15 1940.15,2735.48 1920.5,2737C 1906.95,2738.93 1893.45,2741.1 1880,2743.5C 1864.57,2741.45 1849.07,2740.11 1833.5,2739.5C 1829.74,2738.97 1826.57,2739.97 1824,2742.5C 1784.2,2822.68 1745.03,2903.35 1706.5,2984.5C 1794.16,2985.33 1881.83,2985.83 1969.5,2986C 1881.17,2986.33 1792.83,2986.67 1704.5,2987C 1701.8,2989.79 1698.46,2991.13 1694.5,2991C 1301.83,2991.67 909.167,2991.67 516.5,2991C 512.113,2991.35 508.447,2990.01 505.5,2987C 451.5,2986.67 397.5,2986.33 343.5,2986C 397.737,2985.83 451.904,2985.33 506,2984.5C 609.062,2774.37 711.728,2563.7 814,2352.5C 827.331,2325.88 840.665,2299.21 854,2272.5C 858.925,2259.98 864.925,2247.98 872,2236.5C 873,2233.17 874,2229.83 875,2226.5C 879.951,2217.6 884.784,2208.76 889.5,2200C 891.382,2196.74 892.548,2193.24 893,2189.5C 894,2188.83 895,2188.17 896,2187.5C 905.562,2165.49 915.895,2143.82 927,2122.5C 927.667,2120.5 927.667,2118.5 927,2116.5C 925,2113.17 923,2109.83 921,2106.5C 912.13,2085.3 902.796,2064.3 893,2043.5C 881.171,2012.83 870.171,1981.83 860,1950.5C 854.755,1929.67 849.089,1909 843,1888.5C 838.836,1869.83 834.836,1851.16 831,1832.5C 830.667,1828.5 830.333,1824.5 830,1820.5C 828.395,1813.1 826.728,1805.76 825,1798.5C 823.108,1785.91 821.774,1773.25 821,1760.5C 820.333,1759.17 819.667,1757.83 819,1756.5C 817.1,1737.92 816.1,1719.25 816,1700.5C 815.085,1699.67 814.419,1698.67 814,1697.5C 812.005,1646.83 812.005,1596.17 814,1545.5C 814.419,1544.33 815.085,1543.33 816,1542.5C 816.127,1524.43 817.127,1506.43 819,1488.5C 819.216,1486.62 819.883,1484.95 821,1483.5C 821.591,1470.71 822.924,1458.04 825,1445.5C 825.667,1444.17 826.333,1442.83 827,1441.5C 829.334,1426.46 831.668,1411.46 834,1396.5C 881.316,1177.23 983.483,987.734 1140.5,828C 1158.55,811.277 1176.55,794.61 1194.5,778C 1245.97,733.601 1300.64,693.601 1358.5,658C 1373.78,650.693 1388.45,642.36 1402.5,633C 1417.35,626.074 1432.02,618.907 1446.5,611.5C 1544.31,525.527 1642.65,440.027 1741.5,355C 1748,353.5 1750.5,356 1749,362.5C 1723.28,418.762 1697.45,474.929 1671.5,531C 1674.88,531.938 1677.88,531.271 1680.5,529C 1685.25,528.383 1689.92,527.383 1694.5,526C 1867.59,400.422 2040.59,274.589 2213.5,148.5 Z"/></g>
<g><path style="opacity:0.004" fill="#000000" d="M 2508.5,922.5 C 2509.83,923.167 2509.83,923.167 2508.5,922.5 Z"/></g>
<g><path style="opacity:0.004" fill="#b8b8b8" d="M 2512.5,923.5 C 2513.25,922.427 2514.25,922.26 2515.5,923C 2514.55,923.483 2513.55,923.649 2512.5,923.5 Z"/></g>
<g><path style="opacity:0.004" fill="#b8b8b8" d="M 2516.5,923.5 C 2517.25,922.427 2518.25,922.26 2519.5,923C 2518.55,923.483 2517.55,923.649 2516.5,923.5 Z"/></g>
<g><path style="opacity:0.004" fill="#fefffe" d="M 2521.5,923.5 C 2521.9,922.475 2522.56,922.308 2523.5,923C 2522.91,923.464 2522.24,923.631 2521.5,923.5 Z"/></g>
<g><path style="opacity:0.004" fill="#000000" d="M 2524.5,922.5 C 2525.83,923.167 2525.83,923.167 2524.5,922.5 Z"/></g>
<g><path style="opacity:0.004" fill="#fefffe" d="M 2527.5,923.5 C 2527.9,922.475 2528.56,922.308 2529.5,923C 2528.91,923.464 2528.24,923.631 2527.5,923.5 Z"/></g>
<g><path style="opacity:0.004" fill="#fefffe" d="M 2533.5,923.5 C 2533.9,922.475 2534.56,922.308 2535.5,923C 2534.91,923.464 2534.24,923.631 2533.5,923.5 Z"/></g>
<g><path style="opacity:0.004" fill="#fefffe" d="M 2537.5,922.5 C 2538.83,923.167 2538.83,923.167 2537.5,922.5 Z"/></g>
<g><path style="opacity:0.004" fill="#000000" d="M 2540.5,922.5 C 2541.83,923.167 2541.83,923.167 2540.5,922.5 Z"/></g>
<g><path style="opacity:0.004" fill="#fefffe" d="M 2543.5,923.5 C 2544.6,922.402 2545.93,922.235 2547.5,923C 2546.21,923.49 2544.87,923.657 2543.5,923.5 Z"/></g>
<g><path style="opacity:0.004" fill="#b8b8b8" d="M 2548.5,923.5 C 2549.25,922.427 2550.25,922.26 2551.5,923C 2550.55,923.483 2549.55,923.649 2548.5,923.5 Z"/></g>
<g><path style="opacity:0.004" fill="#fefffe" d="M 2553.5,923.5 C 2553.9,922.475 2554.56,922.308 2555.5,923C 2554.91,923.464 2554.24,923.631 2553.5,923.5 Z"/></g>
<g><path style="opacity:0.004" fill="#000000" d="M 2556.5,922.5 C 2557.83,923.167 2557.83,923.167 2556.5,922.5 Z"/></g>
<g><path style="opacity:0.004" fill="#fefffe" d="M 2559.5,923.5 C 2560.25,922.427 2561.25,922.26 2562.5,923C 2561.55,923.483 2560.55,923.649 2559.5,923.5 Z"/></g>
<g><path style="opacity:0.004" fill="#a2a2a2" d="M 2564.5,923.5 C 2564.9,922.475 2565.56,922.308 2566.5,923C 2565.91,923.464 2565.24,923.631 2564.5,923.5 Z"/></g>
<g><path style="opacity:0.004" fill="#000000" d="M 2568.5,922.5 C 2569.83,923.167 2569.83,923.167 2568.5,922.5 Z"/></g>
<g><path style="opacity:0.004" fill="#000000" d="M 2572.5,922.5 C 2573.83,923.167 2573.83,923.167 2572.5,922.5 Z"/></g>
<g><path style="opacity:0.004" fill="#b8b8b8" d="M 2576.5,923.5 C 2577.25,922.427 2578.25,922.26 2579.5,923C 2578.55,923.483 2577.55,923.649 2576.5,923.5 Z"/></g>
<g><path style="opacity:0.004" fill="#a2a2a2" d="M 2580.5,923.5 C 2580.9,922.475 2581.56,922.308 2582.5,923C 2581.91,923.464 2581.24,923.631 2580.5,923.5 Z"/></g>
<g><path style="opacity:0.004" fill="#a2a2a2" d="M 2584.5,923.5 C 2584.9,922.475 2585.56,922.308 2586.5,923C 2585.91,923.464 2585.24,923.631 2584.5,923.5 Z"/></g>
<g><path style="opacity:0.004" fill="#a2a2a2" d="M 2588.5,923.5 C 2588.9,922.475 2589.56,922.308 2590.5,923C 2589.91,923.464 2589.24,923.631 2588.5,923.5 Z"/></g>
<g><path style="opacity:0.004" fill="#a2a2a2" d="M 2592.5,923.5 C 2592.9,922.475 2593.56,922.308 2594.5,923C 2593.91,923.464 2593.24,923.631 2592.5,923.5 Z"/></g>
<g><path style="opacity:0.004" fill="#a2a2a2" d="M 2596.5,923.5 C 2596.9,922.475 2597.56,922.308 2598.5,923C 2597.91,923.464 2597.24,923.631 2596.5,923.5 Z"/></g>
<g><path style="opacity:0.004" fill="#000000" d="M 2600.5,922.5 C 2601.83,923.167 2601.83,923.167 2600.5,922.5 Z"/></g>
<g><path style="opacity:0.004" fill="#000000" d="M 2604.5,922.5 C 2605.83,923.167 2605.83,923.167 2604.5,922.5 Z"/></g>
<g><path style="opacity:0.004" fill="#fefffe" d="M 2607.5,923.5 C 2608.6,922.402 2609.93,922.235 2611.5,923C 2610.21,923.49 2608.87,923.657 2607.5,923.5 Z"/></g>
<g><path style="opacity:0.004" fill="#000000" d="M 2612.5,922.5 C 2613.83,923.167 2613.83,923.167 2612.5,922.5 Z"/></g>
<g><path style="opacity:0.004" fill="#fefffe" d="M 2617.5,922.5 C 2618.83,923.167 2618.83,923.167 2617.5,922.5 Z"/></g>
<g><path style="opacity:0.004" fill="#000000" d="M 2620.5,922.5 C 2621.83,923.167 2621.83,923.167 2620.5,922.5 Z"/></g>
<g><path style="opacity:0.004" fill="#fefffe" d="M 2623.5,923.5 C 2623.9,922.475 2624.56,922.308 2625.5,923C 2624.91,923.464 2624.24,923.631 2623.5,923.5 Z"/></g>
<g><path style="opacity:0.004" fill="#b8b8b8" d="M 2628.5,923.5 C 2629.25,922.427 2630.25,922.26 2631.5,923C 2630.55,923.483 2629.55,923.649 2628.5,923.5 Z"/></g>
<g><path style="opacity:0.004" fill="#fefffe" d="M 2633.5,922.5 C 2634.83,923.167 2634.83,923.167 2633.5,922.5 Z"/></g>
<g><path style="opacity:0.004" fill="#000000" d="M 2636.5,922.5 C 2637.83,923.167 2637.83,923.167 2636.5,922.5 Z"/></g>
<g><path style="opacity:0.004" fill="#fefffe" d="M 2639.5,923.5 C 2640.25,922.427 2641.25,922.26 2642.5,923C 2641.55,923.483 2640.55,923.649 2639.5,923.5 Z"/></g>
<g><path style="opacity:0.004" fill="#a2a2a2" d="M 2644.5,923.5 C 2644.9,922.475 2645.56,922.308 2646.5,923C 2645.91,923.464 2645.24,923.631 2644.5,923.5 Z"/></g>
<g><path style="opacity:0.004" fill="#fefffe" d="M 2653.5,924.5 C 2651.38,926.087 2649.71,925.754 2648.5,923.5C 2649.33,923.167 2650.17,922.833 2651,922.5C 2652.38,922.684 2653.21,923.351 2653.5,924.5 Z"/></g>
<g><path style="opacity:0.004" fill="#d6d6d6" d="M 2653.5,924.5 C 2657.01,925.116 2657.84,926.783 2656,929.5C 2654.12,928.347 2653.28,926.681 2653.5,924.5 Z"/></g>
<g><path style="opacity:0.004" fill="#c2c2c2" d="M 2656.5,930.5 C 2657.83,932.059 2659.16,933.725 2660.5,935.5C 2658.38,938.268 2656.71,938.101 2655.5,935C 2656.15,933.56 2656.48,932.06 2656.5,930.5 Z"/></g>
<g><path style="opacity:0.004" fill="#000000" d="M 2659.5,939.5 C 2660.83,940.167 2660.83,940.167 2659.5,939.5 Z"/></g>
<g><path style="opacity:0.004" fill="#fefffe" d="M 2661.5,940.5 C 2662.83,941.167 2662.83,941.167 2661.5,940.5 Z"/></g>
<g><path style="opacity:0.004" fill="#c0c0c0" d="M 2661.5,944.5 C 2665.42,945.425 2665.42,946.425 2661.5,947.5C 2660.44,946.575 2660.44,945.575 2661.5,944.5 Z"/></g>
<g><path style="opacity:0.978" fill="#fefefe" d="M 2663.5,953.5 C 2664.82,953.33 2665.99,953.663 2667,954.5C 2672.41,968.452 2676.74,982.785 2680,997.5C 2684.38,1008.09 2687.38,1019.09 2689,1030.5C 2700.4,1072.62 2708.4,1115.62 2713,1159.5C 2713.29,1161.04 2713.96,1162.38 2715,1163.5C 2721.14,1234.09 2721.8,1304.75 2717,1375.5C 2710.1,1448.44 2693.43,1519.11 2667,1587.5C 2660.16,1602.34 2653.49,1617.34 2647,1632.5C 2639.39,1647.31 2631.39,1661.98 2623,1676.5C 2619.95,1680.76 2616.79,1684.92 2613.5,1689C 2365.17,1689.67 2116.83,1689.67 1868.5,1689C 1796.87,1678.38 1752.04,1637.88 1734,1567.5C 1733.18,1559.85 1732.51,1552.18 1732,1544.5C 1731.33,1395.17 1731.33,1245.83 1732,1096.5C 1739.05,1030.46 1773.55,985.627 1835.5,962C 1853.96,956.416 1872.79,953.916 1892,954.5C 2143.6,955.092 2397.6,955.425 2654,955.5C 2657.38,955.193 2660.54,954.526 2663.5,953.5 Z"/></g>
<g><path style="opacity:0.004" fill="#000000" d="M 2610.5,1690.5 C 2611.83,1691.17 2611.83,1691.17 2610.5,1690.5 Z"/></g>
<g><path style="opacity:0.004" fill="#e4e4e4" d="M 2607.5,1694.5 C 2609.89,1695.87 2609.55,1697.2 2606.5,1698.5C 2606.17,1698.17 2605.83,1697.83 2605.5,1697.5C 2606.19,1696.48 2606.86,1695.48 2607.5,1694.5 Z"/></g>
<g><path style="opacity:0.004" fill="#b8b8b8" d="M 2601.5,1703.5 C 2604,1703.51 2604.17,1704.18 2602,1705.5C 2601.54,1704.91 2601.37,1704.24 2601.5,1703.5 Z"/></g>
<g><path style="opacity:0.004" fill="#c6c6c6" d="M 2598.5,1710.5 C 2597.2,1707.4 2597.54,1707.06 2599.5,1709.5C 2599.38,1710.11 2599.04,1710.44 2598.5,1710.5 Z"/></g>
<g><path style="opacity:0.005" fill="#fefffe" d="M 2598.5,1710.5 C 2598.61,1711.12 2598.94,1711.62 2599.5,1712C 2598.09,1713.37 2596.42,1714.21 2594.5,1714.5C 2594.17,1711.5 2595.5,1710.17 2598.5,1710.5 Z"/></g>
<g><path style="opacity:0.004" fill="#b8b8b8" d="M 2594.5,1714.5 C 2594.78,1718.59 2594.11,1719.09 2592.5,1716C 2592.84,1714.97 2593.5,1714.47 2594.5,1714.5 Z"/></g>
<g><path style="opacity:0.004" fill="#000000" d="M 2584.5,1720.5 C 2585.83,1721.17 2585.83,1721.17 2584.5,1720.5 Z"/></g>
<g><path style="opacity:0.004" fill="#f7f7f7" d="M 2021.5,2984.5 C 2023.97,2984.6 2024.64,2985.6 2023.5,2987.5C 2012.88,2986.69 2002.21,2986.19 1991.5,2986C 2001.68,2985.83 2011.68,2985.33 2021.5,2984.5 Z"/></g>
<g><path style="opacity:0.004" fill="#fefffe" d="M 76.5,2985.5 C 77.8333,2986.17 77.8333,2986.17 76.5,2985.5 Z"/></g>
<g><path style="opacity:0.004" fill="#fefffe" d="M 174.5,2985.5 C 175.833,2986.17 175.833,2986.17 174.5,2985.5 Z"/></g>
<g><path style="opacity:0.004" fill="#fefffe" d="M 329.5,2985.5 C 330.833,2986.17 330.833,2986.17 329.5,2985.5 Z"/></g>
</svg>
